<svg width="30" height="30" viewBox="0 0 30 30" fill="none" xmlns="http://www.w3.org/2000/svg">
<path d="M15.0755 0.189865C7.03219 0.189865 0.511787 6.72284 0.511787 14.7816C0.511787 22.8404 7.03219 29.3734 15.0755 29.3734C23.1188 29.3734 29.6392 22.8404 29.6392 14.7816C29.6392 6.72284 23.1188 0.189865 15.0755 0.189865ZM22.4251 12.6047L15.1433 19.9006C14.8151 20.2294 14.3862 20.3939 13.9552 20.3939C13.5241 20.3939 13.0953 20.2294 12.7671 19.9006L8.28594 15.4108C7.62952 14.7531 7.62952 13.6877 8.28594 13.03C8.94236 12.3723 10.0058 12.3723 10.6622 13.03L13.9552 16.3294L20.0489 10.2239C20.7053 9.56622 21.7687 9.56622 22.4251 10.2239C23.0816 10.8816 23.0816 11.947 22.4251 12.6047Z" fill="black"/>
</svg>
