<svg viewBox="0 0 32 32"
  xmlns="http://www.w3.org/2000/svg" aria-hidden="true" role="presentation" focusable="false" style="display: block; height: 24px; width: 24px; fill: currentcolor;">
  <path d="M16 1c4.258 0 7.606 4.443 7.968 10h.915a2 2 0 0 1 2 2l-.003.11-.01.11-1.777 16a2 2 0 0 1-1.829 1.774l-.159.006H8.895a2 2 0 0 1-1.964-1.621l-.024-.158L6.438 25H5a2 2 0 0 1-1.995-1.85L3 23v-9a5 5 0 0 1 4.783-4.995L8 9h.298C9.241 4.37 12.305 1 16 1zm7.993 20H17v2a2 2 0 0 1-1.85 1.995L15 25H8.45l.445 4h14.21zM15 21H5v2h10zm0-10H8a3 3 0 0 0-2.995 2.824L5 14v5h10zm9.883 2H17v6h7.215zM16 3c-2.512 0-4.805 2.433-5.654 6H15a2 2 0 0 1 1.995 1.85L17 11h4.963C21.624 6.453 19.005 3 16 3z"></path>
</svg>