<svg width="48" height="48" viewBox="0 0 48 48" fill="none" xmlns="http://www.w3.org/2000/svg">
<path fill-rule="evenodd" clip-rule="evenodd" d="M38 19.6C38 27.517 27.3256 37.162 24.6184 39.481C24.2598 39.788 23.7402 39.788 23.3816 39.481C20.6744 37.162 10 27.517 10 19.6C10 12.0889 16.268 6 24 6C31.732 6 38 12.0889 38 19.6Z" stroke="#F5562A" stroke-width="2" stroke-linecap="round"/>
<path d="M24 24C26.2091 24 28 22.2091 28 20C28 17.7909 26.2091 16 24 16C21.7909 16 20 17.7909 20 20C20 22.2091 21.7909 24 24 24Z" stroke="#F5562A" stroke-width="2" stroke-linecap="round"/>
</svg>
